<svg xmlns="http://www.w3.org/2000/svg" viewBox="0 0 533.5 544.3">
  <path fill="#4285F4" d="M533.5 278.4c0-18.5-1.6-37.1-5.1-55.2H272v104.5h147.4c-6.3 34.1-25 63-53.4 82.2v68.3h86.2c50.4-46.5 81.3-115.1 81.3-199.8z"/>
  <path fill="#34A853" d="M272 544.3c72.4 0 133.2-23.9 177.6-64.7l-86.2-68.3c-24 16.1-54.7 25.5-91.4 25.5-70.4 0-130.2-47.6-151.6-111.6H30v69.9C74.7 476.1 166.7 544.3 272 544.3z"/>
  <path fill="#FBBC05" d="M120.4 325.2c-11.3-33.9-11.3-70.6 0-104.5V150.8H30c-40.2 80.3-40.2 176.8 0 257.1l90.4-69.9z"/>
  <path fill="#EA4335" d="M272 107.7c38.7 0 73.3 13.3 100.8 39.4l75.6-75.6C405 24.1 346.2 0 272 0 166.7 0 74.7 68.2 30 150.8l90.4 69.9C141.8 155.2 201.6 107.7 272 107.7z"/>
</svg>